<mxfile host="app.diagrams.net" agent="Mozilla/5.0 (Windows NT 10.0; Win64; x64) AppleWebKit/537.36 (KHTML, like Gecko) Chrome/134.0.0.0 Safari/537.36" version="26.1.1">
  <diagram name="Page-1" id="K0WQ7Cvdik2r1dkFfW2P">
    <mxGraphModel dx="1379" dy="549" grid="1" gridSize="10" guides="1" tooltips="1" connect="1" arrows="1" fold="1" page="1" pageScale="1" pageWidth="827" pageHeight="1169" math="0" shadow="0">
      <root>
        <mxCell id="0" />
        <mxCell id="1" parent="0" />
        <mxCell id="CiT0ItTjXTqFfFvnRa44-4" value="(Guess #1:&amp;nbsp; &amp;nbsp; &amp;nbsp; &amp;nbsp; &amp;nbsp; &amp;nbsp;)" style="rounded=1;whiteSpace=wrap;html=1;" vertex="1" parent="1">
          <mxGeometry x="240" y="40" width="120" height="60" as="geometry" />
        </mxCell>
        <mxCell id="CiT0ItTjXTqFfFvnRa44-5" value="" style="ellipse;whiteSpace=wrap;html=1;aspect=fixed;fillColor=#FF0000;" vertex="1" parent="1">
          <mxGeometry x="310" y="65" width="10" height="10" as="geometry" />
        </mxCell>
        <mxCell id="CiT0ItTjXTqFfFvnRa44-7" value="" style="ellipse;whiteSpace=wrap;html=1;aspect=fixed;fillColor=#0000FF;" vertex="1" parent="1">
          <mxGeometry x="330" y="65" width="10" height="10" as="geometry" />
        </mxCell>
        <mxCell id="CiT0ItTjXTqFfFvnRa44-14" value="win" style="curved=1;endArrow=classic;html=1;rounded=0;entryX=0;entryY=0.5;entryDx=0;entryDy=0;" edge="1" parent="1" target="CiT0ItTjXTqFfFvnRa44-4">
          <mxGeometry x="-0.4573" y="3" width="50" height="50" relative="1" as="geometry">
            <mxPoint x="150" y="120" as="sourcePoint" />
            <mxPoint x="250" y="75" as="targetPoint" />
            <Array as="points">
              <mxPoint x="250" y="125" />
              <mxPoint x="200" y="75" />
            </Array>
            <mxPoint as="offset" />
          </mxGeometry>
        </mxCell>
        <mxCell id="CiT0ItTjXTqFfFvnRa44-22" value="" style="group" vertex="1" connectable="0" parent="1">
          <mxGeometry x="100" y="100" width="50" height="30" as="geometry" />
        </mxCell>
        <mxCell id="CiT0ItTjXTqFfFvnRa44-20" value="" style="verticalLabelPosition=bottom;verticalAlign=top;html=1;shape=mxgraph.basic.rect;fillColor2=none;strokeWidth=1;size=20;indent=5;fillColor=#BBBBBB;" vertex="1" parent="CiT0ItTjXTqFfFvnRa44-22">
          <mxGeometry width="50" height="30" as="geometry" />
        </mxCell>
        <mxCell id="CiT0ItTjXTqFfFvnRa44-13" value="" style="ellipse;whiteSpace=wrap;html=1;aspect=fixed;fillColor=#000000;" vertex="1" parent="CiT0ItTjXTqFfFvnRa44-22">
          <mxGeometry x="10" y="10" width="10" height="10" as="geometry" />
        </mxCell>
        <mxCell id="CiT0ItTjXTqFfFvnRa44-16" value="" style="ellipse;whiteSpace=wrap;html=1;aspect=fixed;fillColor=#000000;" vertex="1" parent="CiT0ItTjXTqFfFvnRa44-22">
          <mxGeometry x="30" y="10" width="10" height="10" as="geometry" />
        </mxCell>
        <mxCell id="CiT0ItTjXTqFfFvnRa44-23" value="" style="group" vertex="1" connectable="0" parent="1">
          <mxGeometry x="200" y="180" width="50" height="30" as="geometry" />
        </mxCell>
        <mxCell id="CiT0ItTjXTqFfFvnRa44-24" value="" style="verticalLabelPosition=bottom;verticalAlign=top;html=1;shape=mxgraph.basic.rect;fillColor2=none;strokeWidth=1;size=20;indent=5;fillColor=#BBBBBB;" vertex="1" parent="CiT0ItTjXTqFfFvnRa44-23">
          <mxGeometry width="50" height="30" as="geometry" />
        </mxCell>
        <mxCell id="CiT0ItTjXTqFfFvnRa44-25" value="" style="ellipse;whiteSpace=wrap;html=1;aspect=fixed;fillColor=#FFFFFF;" vertex="1" parent="CiT0ItTjXTqFfFvnRa44-23">
          <mxGeometry x="10" y="10" width="10" height="10" as="geometry" />
        </mxCell>
        <mxCell id="CiT0ItTjXTqFfFvnRa44-26" value="" style="ellipse;whiteSpace=wrap;html=1;aspect=fixed;fillColor=#FFFFFF;" vertex="1" parent="CiT0ItTjXTqFfFvnRa44-23">
          <mxGeometry x="30" y="10" width="10" height="10" as="geometry" />
        </mxCell>
        <mxCell id="CiT0ItTjXTqFfFvnRa44-27" style="edgeStyle=orthogonalEdgeStyle;rounded=0;orthogonalLoop=1;jettySize=auto;html=1;" edge="1" parent="1" source="CiT0ItTjXTqFfFvnRa44-24" target="CiT0ItTjXTqFfFvnRa44-4">
          <mxGeometry relative="1" as="geometry" />
        </mxCell>
        <mxCell id="CiT0ItTjXTqFfFvnRa44-30" value="WIN" style="edgeLabel;html=1;align=center;verticalAlign=middle;resizable=0;points=[];" vertex="1" connectable="0" parent="CiT0ItTjXTqFfFvnRa44-27">
          <mxGeometry x="-0.0823" y="1" relative="1" as="geometry">
            <mxPoint as="offset" />
          </mxGeometry>
        </mxCell>
        <mxCell id="CiT0ItTjXTqFfFvnRa44-28" value="&lt;font style=&quot;font-size: 10px;&quot;&gt;2 black pegs&lt;/font&gt;" style="text;html=1;align=center;verticalAlign=middle;resizable=0;points=[];autosize=1;strokeColor=none;fillColor=none;" vertex="1" parent="1">
          <mxGeometry x="85" y="120" width="80" height="30" as="geometry" />
        </mxCell>
        <mxCell id="CiT0ItTjXTqFfFvnRa44-29" value="&lt;font style=&quot;font-size: 10px;&quot;&gt;2 white pegs&lt;/font&gt;" style="text;html=1;align=center;verticalAlign=middle;resizable=0;points=[];autosize=1;strokeColor=none;fillColor=none;" vertex="1" parent="1">
          <mxGeometry x="185" y="200" width="80" height="30" as="geometry" />
        </mxCell>
        <UserObject label="Other Feedback" treeRoot="1" id="CiT0ItTjXTqFfFvnRa44-35">
          <mxCell style="whiteSpace=wrap;html=1;align=center;treeFolding=1;treeMoving=1;newEdgeStyle={&quot;edgeStyle&quot;:&quot;elbowEdgeStyle&quot;,&quot;startArrow&quot;:&quot;none&quot;,&quot;endArrow&quot;:&quot;none&quot;};" vertex="1" collapsed="1" parent="1">
            <mxGeometry x="485" y="140" width="120" height="60" as="geometry" />
          </mxCell>
        </UserObject>
        <mxCell id="CiT0ItTjXTqFfFvnRa44-36" style="edgeStyle=elbowEdgeStyle;rounded=0;orthogonalLoop=1;jettySize=auto;html=1;startArrow=none;endArrow=none;" edge="1" parent="1">
          <mxGeometry relative="1" as="geometry">
            <mxPoint x="486" y="170" as="sourcePoint" />
            <mxPoint x="359" y="77" as="targetPoint" />
          </mxGeometry>
        </mxCell>
        <mxCell id="CiT0ItTjXTqFfFvnRa44-41" value="" style="group" vertex="1" connectable="0" parent="1">
          <mxGeometry x="270" y="270" width="30" height="30" as="geometry" />
        </mxCell>
        <mxCell id="CiT0ItTjXTqFfFvnRa44-37" value="" style="ellipse;whiteSpace=wrap;html=1;aspect=fixed;fillColor=#BBBBBB;" vertex="1" parent="CiT0ItTjXTqFfFvnRa44-41">
          <mxGeometry width="30" height="30" as="geometry" />
        </mxCell>
        <mxCell id="CiT0ItTjXTqFfFvnRa44-40" value="" style="ellipse;whiteSpace=wrap;html=1;aspect=fixed;fillColor=#000000;" vertex="1" parent="CiT0ItTjXTqFfFvnRa44-41">
          <mxGeometry x="10" y="10" width="10" height="10" as="geometry" />
        </mxCell>
        <mxCell id="CiT0ItTjXTqFfFvnRa44-48" value="" style="group" vertex="1" connectable="0" parent="1">
          <mxGeometry x="540" y="270" width="30" height="30" as="geometry" />
        </mxCell>
        <mxCell id="CiT0ItTjXTqFfFvnRa44-49" value="" style="ellipse;whiteSpace=wrap;html=1;aspect=fixed;fillColor=#BBBBBB;" vertex="1" parent="CiT0ItTjXTqFfFvnRa44-48">
          <mxGeometry width="30" height="30" as="geometry" />
        </mxCell>
        <mxCell id="CiT0ItTjXTqFfFvnRa44-50" value="" style="ellipse;whiteSpace=wrap;html=1;aspect=fixed;fillColor=#FFFFFF;" vertex="1" parent="CiT0ItTjXTqFfFvnRa44-48">
          <mxGeometry x="10" y="10" width="10" height="10" as="geometry" />
        </mxCell>
        <mxCell id="CiT0ItTjXTqFfFvnRa44-65" value="(1 black,0 white)" style="text;html=1;align=center;verticalAlign=middle;whiteSpace=wrap;rounded=0;" vertex="1" parent="1">
          <mxGeometry x="230" y="300" width="110" height="30" as="geometry" />
        </mxCell>
        <mxCell id="CiT0ItTjXTqFfFvnRa44-66" value="(0 black,0 white)" style="text;html=1;align=center;verticalAlign=middle;whiteSpace=wrap;rounded=0;" vertex="1" parent="1">
          <mxGeometry x="660" y="300" width="110" height="30" as="geometry" />
        </mxCell>
        <mxCell id="CiT0ItTjXTqFfFvnRa44-90" value="" style="edgeStyle=orthogonalEdgeStyle;rounded=0;orthogonalLoop=1;jettySize=auto;html=1;" edge="1" parent="1" source="CiT0ItTjXTqFfFvnRa44-67" target="CiT0ItTjXTqFfFvnRa44-80">
          <mxGeometry relative="1" as="geometry" />
        </mxCell>
        <mxCell id="CiT0ItTjXTqFfFvnRa44-67" value="(0 black,1 white)" style="text;html=1;align=center;verticalAlign=middle;whiteSpace=wrap;rounded=0;" vertex="1" parent="1">
          <mxGeometry x="500" y="300" width="110" height="30" as="geometry" />
        </mxCell>
        <mxCell id="CiT0ItTjXTqFfFvnRa44-68" value="" style="group" vertex="1" connectable="0" parent="1">
          <mxGeometry x="700" y="270" width="30" height="30" as="geometry" />
        </mxCell>
        <mxCell id="CiT0ItTjXTqFfFvnRa44-69" value="" style="ellipse;whiteSpace=wrap;html=1;aspect=fixed;fillColor=#BBBBBB;" vertex="1" parent="CiT0ItTjXTqFfFvnRa44-68">
          <mxGeometry width="30" height="30" as="geometry" />
        </mxCell>
        <mxCell id="CiT0ItTjXTqFfFvnRa44-70" value="" style="ellipse;whiteSpace=wrap;html=1;aspect=fixed;fillColor=#BBBBBB;" vertex="1" parent="CiT0ItTjXTqFfFvnRa44-68">
          <mxGeometry x="10" y="10" width="10" height="10" as="geometry" />
        </mxCell>
        <mxCell id="CiT0ItTjXTqFfFvnRa44-71" style="edgeStyle=orthogonalEdgeStyle;rounded=0;orthogonalLoop=1;jettySize=auto;html=1;entryX=0;entryY=1;entryDx=0;entryDy=0;exitX=0.5;exitY=0;exitDx=0;exitDy=0;" edge="1" parent="1" source="CiT0ItTjXTqFfFvnRa44-37">
          <mxGeometry relative="1" as="geometry">
            <mxPoint x="300" y="270" as="sourcePoint" />
            <mxPoint x="485" y="185" as="targetPoint" />
            <Array as="points">
              <mxPoint x="410" y="270" />
              <mxPoint x="410" y="185" />
            </Array>
          </mxGeometry>
        </mxCell>
        <mxCell id="CiT0ItTjXTqFfFvnRa44-72" style="edgeStyle=orthogonalEdgeStyle;rounded=0;orthogonalLoop=1;jettySize=auto;html=1;entryX=0.59;entryY=1.003;entryDx=0;entryDy=0;entryPerimeter=0;" edge="1" parent="1" source="CiT0ItTjXTqFfFvnRa44-49" target="CiT0ItTjXTqFfFvnRa44-35">
          <mxGeometry relative="1" as="geometry" />
        </mxCell>
        <mxCell id="CiT0ItTjXTqFfFvnRa44-73" style="edgeStyle=orthogonalEdgeStyle;rounded=0;orthogonalLoop=1;jettySize=auto;html=1;entryX=1;entryY=0.75;entryDx=0;entryDy=0;" edge="1" parent="1" source="CiT0ItTjXTqFfFvnRa44-69" target="CiT0ItTjXTqFfFvnRa44-35">
          <mxGeometry relative="1" as="geometry" />
        </mxCell>
        <mxCell id="CiT0ItTjXTqFfFvnRa44-100" value="" style="edgeStyle=orthogonalEdgeStyle;rounded=0;orthogonalLoop=1;jettySize=auto;html=1;" edge="1" parent="1" source="CiT0ItTjXTqFfFvnRa44-80" target="CiT0ItTjXTqFfFvnRa44-99">
          <mxGeometry relative="1" as="geometry" />
        </mxCell>
        <mxCell id="CiT0ItTjXTqFfFvnRa44-80" value="&lt;span style=&quot;font-size: 10px;&quot;&gt;(Guess #2: Adjust)&lt;/span&gt;" style="html=1;whiteSpace=wrap;aspect=fixed;shape=isoRectangle;fillColor=#BBBBBB;" vertex="1" parent="1">
          <mxGeometry x="430" y="405" width="125" height="75" as="geometry" />
        </mxCell>
        <mxCell id="CiT0ItTjXTqFfFvnRa44-94" value="" style="edgeStyle=orthogonalEdgeStyle;rounded=0;orthogonalLoop=1;jettySize=auto;html=1;" edge="1" parent="1" source="CiT0ItTjXTqFfFvnRa44-88" target="CiT0ItTjXTqFfFvnRa44-93">
          <mxGeometry relative="1" as="geometry" />
        </mxCell>
        <mxCell id="CiT0ItTjXTqFfFvnRa44-88" value="&lt;font style=&quot;font-size: 10px;&quot;&gt;(Guess #2: Adjust)&lt;/font&gt;" style="rhombus;whiteSpace=wrap;html=1;fillColor=#BBBBBB;" vertex="1" parent="1">
          <mxGeometry x="130" y="400" width="80" height="80" as="geometry" />
        </mxCell>
        <mxCell id="CiT0ItTjXTqFfFvnRa44-89" value="" style="edgeStyle=orthogonalEdgeStyle;rounded=0;orthogonalLoop=1;jettySize=auto;html=1;" edge="1" parent="1">
          <mxGeometry relative="1" as="geometry">
            <mxPoint x="266" y="285" as="sourcePoint" />
            <mxPoint x="166.00000000000023" y="400.0000000000002" as="targetPoint" />
          </mxGeometry>
        </mxCell>
        <mxCell id="CiT0ItTjXTqFfFvnRa44-104" value="" style="edgeStyle=orthogonalEdgeStyle;rounded=0;orthogonalLoop=1;jettySize=auto;html=1;" edge="1" parent="1" source="CiT0ItTjXTqFfFvnRa44-91" target="CiT0ItTjXTqFfFvnRa44-103">
          <mxGeometry relative="1" as="geometry" />
        </mxCell>
        <mxCell id="CiT0ItTjXTqFfFvnRa44-91" value="&lt;span style=&quot;font-size: 10px;&quot;&gt;(Guess #2: Yellow, Yellow)&lt;/span&gt;" style="rhombus;whiteSpace=wrap;html=1;fillColor=#BBBBBB;" vertex="1" parent="1">
          <mxGeometry x="730" y="397.5" width="190" height="102.5" as="geometry" />
        </mxCell>
        <mxCell id="CiT0ItTjXTqFfFvnRa44-92" value="" style="edgeStyle=orthogonalEdgeStyle;rounded=0;orthogonalLoop=1;jettySize=auto;html=1;" edge="1" parent="1">
          <mxGeometry relative="1" as="geometry">
            <mxPoint x="734" y="285" as="sourcePoint" />
            <mxPoint x="824.0000000000002" y="397.5000000000002" as="targetPoint" />
          </mxGeometry>
        </mxCell>
        <mxCell id="CiT0ItTjXTqFfFvnRa44-96" value="" style="edgeStyle=orthogonalEdgeStyle;rounded=0;orthogonalLoop=1;jettySize=auto;html=1;" edge="1" parent="1" source="CiT0ItTjXTqFfFvnRa44-93" target="CiT0ItTjXTqFfFvnRa44-95">
          <mxGeometry relative="1" as="geometry" />
        </mxCell>
        <mxCell id="CiT0ItTjXTqFfFvnRa44-93" value="Feedback" style="whiteSpace=wrap;html=1;fillColor=#BBBBBB;" vertex="1" parent="1">
          <mxGeometry x="110" y="570" width="120" height="60" as="geometry" />
        </mxCell>
        <mxCell id="CiT0ItTjXTqFfFvnRa44-95" value="&lt;font style=&quot;font-size: 10px;&quot;&gt;(Guess #3: Win)&amp;nbsp;&lt;/font&gt;" style="rhombus;whiteSpace=wrap;html=1;fillColor=#BBBBBB;" vertex="1" parent="1">
          <mxGeometry x="110" y="700" width="100" height="80" as="geometry" />
        </mxCell>
        <mxCell id="CiT0ItTjXTqFfFvnRa44-102" value="" style="edgeStyle=orthogonalEdgeStyle;rounded=0;orthogonalLoop=1;jettySize=auto;html=1;" edge="1" parent="1" source="CiT0ItTjXTqFfFvnRa44-99" target="CiT0ItTjXTqFfFvnRa44-101">
          <mxGeometry relative="1" as="geometry" />
        </mxCell>
        <mxCell id="CiT0ItTjXTqFfFvnRa44-99" value="Feedback" style="whiteSpace=wrap;html=1;fillColor=#BBBBBB;" vertex="1" parent="1">
          <mxGeometry x="432.5" y="567.5" width="120" height="60" as="geometry" />
        </mxCell>
        <mxCell id="CiT0ItTjXTqFfFvnRa44-101" value="&lt;font style=&quot;font-size: 10px;&quot;&gt;(Guess #3: Win)&lt;/font&gt;" style="rhombus;whiteSpace=wrap;html=1;fillColor=#BBBBBB;" vertex="1" parent="1">
          <mxGeometry x="440" y="697.5" width="92.5" height="80" as="geometry" />
        </mxCell>
        <mxCell id="CiT0ItTjXTqFfFvnRa44-103" value="(Win on move 2)" style="whiteSpace=wrap;html=1;fillColor=#BBBBBB;" vertex="1" parent="1">
          <mxGeometry x="760" y="567.5" width="120" height="60" as="geometry" />
        </mxCell>
        <mxCell id="CiT0ItTjXTqFfFvnRa44-107" value="" style="ellipse;whiteSpace=wrap;html=1;aspect=fixed;fillColor=#FFFF00;" vertex="1" parent="1">
          <mxGeometry x="800" y="420" width="10" height="10" as="geometry" />
        </mxCell>
        <mxCell id="CiT0ItTjXTqFfFvnRa44-108" value="" style="ellipse;whiteSpace=wrap;html=1;aspect=fixed;fillColor=#FFFF00;" vertex="1" parent="1">
          <mxGeometry x="820" y="420" width="10" height="10" as="geometry" />
        </mxCell>
      </root>
    </mxGraphModel>
  </diagram>
</mxfile>
